<svg xmlns="http://www.w3.org/2000/svg" viewBox="0 0 410 404"><path fill="#9caffe" d="M399.9 59.8 216.5 388.7c-5.5 9.7-19.6 9.8-25.2.2L9.3 59.9c-5.8-9.7 1.7-21.9 12.8-20.3l185.4 26.5a15 15 0 0 0 4.1 0l175.7-26.3c11-1.7 18.6 10.4 12.9 20.1Z"/><path fill="#5c7cfa" d="M292.1 1.3 156.7 23.1c-10 1.6-16.3 11.5-13.1 21l43.6 140.5c2.6 8.4 12.1 12.7 20.1 9.1L255 171c7.7-3.4 11.4-12.1 8.3-19.9l-29.5-73.7a7.4 7.4 0 0 1 5.8-10.1l25.3-3.4c9.6-1.3 15.8-10.8 13.1-20L306.5 8c-2.7-9-11.5-14.7-20.3-12.7Z"/></svg>
